<svg width="180" height="53" viewBox="0 0 180 53" fill="none" xmlns="http://www.w3.org/2000/svg">
<path d="M179 46.0344C179 48.8064 176.709 51.0518 173.874 51.0518H6.13243C3.2995 51.0518 1 48.8064 1 46.0344V6.02203C1 3.2513 3.2995 0.998047 6.13243 0.998047H173.873C176.709 0.998047 178.999 3.2513 178.999 6.02203L179 46.0344Z" fill="white"/>
<path d="M173.333 1.06045C176.42 1.06045 178.932 3.51011 178.932 6.52058V45.5331C178.932 48.5435 176.42 50.9932 173.333 50.9932H6.66667C3.58 50.9932 1.06833 48.5435 1.06833 45.5331V6.52058C1.06833 3.51011 3.58 1.06045 6.66667 1.06045H173.333ZM173.333 0.0184969H6.66667C3.00167 0.0184969 0 2.94606 0 6.52058V45.5331C0 49.1076 3.00167 52.0352 6.66667 52.0352H173.333C176.998 52.0352 180 49.1076 180 45.5331V6.52058C180 2.94606 176.998 0.0184969 173.333 0.0184969Z" fill="#ABABAB"/>
<path d="M49.6456 26.0001C49.6143 22.6065 52.4947 20.9555 52.6264 20.8786C50.9951 18.559 48.4667 18.242 47.5782 18.2168C45.4547 17.9988 43.3948 19.4561 42.313 19.4561C41.2097 19.4561 39.5439 18.2378 37.7485 18.2736C35.4382 18.3084 33.2768 19.613 32.0914 21.6388C29.6451 25.7695 31.4696 31.8397 33.8134 35.1786C34.9858 36.8138 36.3558 38.6396 38.149 38.5754C39.9034 38.5049 40.5587 37.4845 42.6758 37.4845C44.7734 37.4845 45.3888 38.5754 47.2176 38.5343C49.1004 38.5049 50.2858 36.8917 51.4173 35.2418C52.7722 33.3675 53.3163 31.5217 53.3379 31.427C53.2936 31.4122 49.6813 30.0676 49.6456 26.0001Z" fill="black"/>
<path d="M46.1909 16.0203C47.1345 14.8695 47.7801 13.3037 47.6009 11.7148C46.2352 11.7738 44.5273 12.6362 43.5438 13.7618C42.6736 14.7536 41.8963 16.3794 42.0971 17.9082C43.6312 18.0199 45.2064 17.1533 46.1909 16.0203Z" fill="black"/>
<path d="M70.0752 15.7074C70.0752 16.9467 69.6941 17.8796 68.933 18.5061C68.228 19.0842 67.2261 19.3738 65.9285 19.3738C65.285 19.3738 64.7344 19.3464 64.2734 19.2916V12.5202C64.8748 12.4254 65.5225 12.377 66.2221 12.377C67.4582 12.377 68.3899 12.6391 69.0183 13.1635C69.7222 13.7563 70.0752 14.6039 70.0752 15.7074ZM68.8822 15.7379C68.8822 14.9346 68.6642 14.3186 68.228 13.889C67.7918 13.4604 67.1549 13.2456 66.316 13.2456C65.9598 13.2456 65.6564 13.2688 65.4049 13.3172V18.4651C65.5441 18.4861 65.7989 18.4956 66.1692 18.4956C67.035 18.4956 67.7033 18.2608 68.174 17.7912C68.6447 17.3216 68.8822 16.6372 68.8822 15.7379Z" fill="black" fill-opacity="0.8"/>
<path d="M76.4005 16.7898C76.4005 17.5532 76.177 18.1787 75.7301 18.6693C75.2615 19.1737 74.6408 19.4254 73.8656 19.4254C73.1185 19.4254 72.5237 19.1842 72.08 18.6999C71.6373 18.2166 71.416 17.6069 71.416 16.872C71.416 16.1033 71.6438 15.4726 72.1016 14.983C72.5593 14.4934 73.1747 14.248 73.9498 14.248C74.6969 14.248 75.2972 14.4892 75.7517 14.9725C76.1835 15.4421 76.4005 16.0486 76.4005 16.7898ZM75.227 16.8256C75.227 16.3676 75.1255 15.9749 74.9236 15.6474C74.6861 15.2515 74.3482 15.0535 73.9088 15.0535C73.4543 15.0535 73.1088 15.2515 72.8713 15.6474C72.6683 15.9749 72.5679 16.3739 72.5679 16.8457C72.5679 17.3037 72.6694 17.6964 72.8713 18.0239C73.1164 18.4198 73.4575 18.6178 73.898 18.6178C74.3298 18.6178 74.6688 18.4166 74.9128 18.0134C75.1223 17.6796 75.227 17.2837 75.227 16.8256Z" fill="black" fill-opacity="0.8"/>
<path d="M84.8814 14.3496L83.289 19.3132H82.2526L81.593 17.1578C81.4257 16.6198 81.2896 16.0849 81.1838 15.5542H81.1633C81.0651 16.0996 80.929 16.6334 80.7542 17.1578L80.0535 19.3132H79.0052L77.5078 14.3496H78.6705L79.246 16.7093C79.3852 17.2673 79.4997 17.799 79.5914 18.3024H79.6119C79.6961 17.8875 79.8354 17.3589 80.0319 16.7198L80.7542 14.3507H81.6761L82.3681 16.6692C82.5355 17.2347 82.6715 17.779 82.7762 18.3034H82.8075C82.8842 17.7927 82.9997 17.2484 83.153 16.6692L83.7705 14.3507H84.8814V14.3496Z" fill="black" fill-opacity="0.8"/>
<path d="M90.748 19.3139H89.6166V16.471C89.6166 15.5949 89.2754 15.1569 88.591 15.1569C88.2552 15.1569 87.9842 15.2769 87.7737 15.518C87.5653 15.7592 87.4595 16.0435 87.4595 16.3688V19.3129H86.3281V15.7686C86.3281 15.3327 86.3141 14.86 86.2871 14.3482H87.2814L87.3343 15.1242H87.3656C87.4973 14.8831 87.6938 14.6841 87.9518 14.5251C88.2584 14.3398 88.6018 14.2461 88.9774 14.2461C89.4525 14.2461 89.8476 14.3956 90.1618 14.6957C90.5526 15.0632 90.748 15.6118 90.748 16.3404V19.3139Z" fill="black" fill-opacity="0.8"/>
<path d="M93.8667 19.3133H92.7363V12.0723H93.8667V19.3133Z" fill="black" fill-opacity="0.8"/>
<path d="M100.529 16.7898C100.529 17.5532 100.306 18.1787 99.859 18.6693C99.3904 19.1737 98.7686 19.4254 97.9945 19.4254C97.2464 19.4254 96.6515 19.1842 96.2089 18.6999C95.7662 18.2166 95.5449 17.6069 95.5449 16.872C95.5449 16.1033 95.7727 15.4726 96.2305 14.983C96.6882 14.4934 97.3036 14.248 98.0777 14.248C98.8258 14.248 99.425 14.4892 99.8806 14.9725C100.312 15.4421 100.529 16.0486 100.529 16.7898ZM99.3548 16.8256C99.3548 16.3676 99.2533 15.9749 99.0514 15.6474C98.815 15.2515 98.476 15.0535 98.0377 15.0535C97.5821 15.0535 97.2366 15.2515 97.0002 15.6474C96.7973 15.9749 96.6969 16.3739 96.6969 16.8457C96.6969 17.3037 96.7983 17.6964 97.0002 18.0239C97.2453 18.4198 97.5864 18.6178 98.0269 18.6178C98.4588 18.6178 98.7967 18.4166 99.0406 18.0134C99.2512 17.6796 99.3548 17.2837 99.3548 16.8256Z" fill="black" fill-opacity="0.8"/>
<path d="M106.004 19.3127H104.988L104.904 18.7409H104.873C104.525 19.1969 104.03 19.4254 103.386 19.4254C102.906 19.4254 102.517 19.2748 102.225 18.9758C101.959 18.7041 101.826 18.3661 101.826 17.9649C101.826 17.3584 102.085 16.8962 102.607 16.5761C103.127 16.256 103.859 16.0991 104.802 16.1065V16.0138C104.802 15.36 104.45 15.0335 103.745 15.0335C103.243 15.0335 102.8 15.1567 102.418 15.401L102.188 14.6766C102.661 14.3912 103.245 14.248 103.934 14.248C105.264 14.248 105.931 14.9325 105.931 16.3013V18.1292C105.931 18.6251 105.956 19.02 106.004 19.3127ZM104.83 17.6069V16.8414C103.582 16.8204 102.958 17.1542 102.958 17.8417C102.958 18.1008 103.029 18.2945 103.175 18.424C103.32 18.5535 103.506 18.6178 103.727 18.6178C103.976 18.6178 104.208 18.5409 104.419 18.3882C104.632 18.2345 104.763 18.0397 104.811 17.8007C104.823 17.747 104.83 17.6817 104.83 17.6069Z" fill="black" fill-opacity="0.8"/>
<path d="M112.432 19.3133H111.428L111.375 18.5163H111.344C111.024 19.1228 110.477 19.426 109.71 19.426C109.096 19.426 108.586 19.1912 108.181 18.7216C107.776 18.252 107.574 17.6423 107.574 16.8937C107.574 16.0903 107.793 15.4396 108.234 14.9426C108.66 14.4793 109.183 14.2476 109.805 14.2476C110.488 14.2476 110.966 14.4719 111.238 14.9215H111.26V12.0723H112.392V17.9761C112.392 18.4594 112.405 18.9048 112.432 19.3133ZM111.26 17.2201V16.3925C111.26 16.2493 111.249 16.1335 111.229 16.045C111.165 15.7797 111.028 15.5565 110.819 15.3764C110.609 15.1963 110.355 15.1058 110.063 15.1058C109.641 15.1058 109.31 15.269 109.067 15.5965C108.827 15.9239 108.705 16.3419 108.705 16.8526C108.705 17.3433 108.82 17.7413 109.052 18.0477C109.297 18.3741 109.628 18.5373 110.041 18.5373C110.412 18.5373 110.709 18.4015 110.935 18.1288C111.153 17.8771 111.26 17.5739 111.26 17.2201Z" fill="black" fill-opacity="0.8"/>
<path d="M122.109 16.7898C122.109 17.5532 121.886 18.1787 121.439 18.6693C120.971 19.1737 120.351 19.4254 119.575 19.4254C118.829 19.4254 118.234 19.1842 117.789 18.6999C117.346 18.2166 117.125 17.6069 117.125 16.872C117.125 16.1033 117.353 15.4726 117.811 14.983C118.268 14.4934 118.884 14.248 119.66 14.248C120.406 14.248 121.007 14.4892 121.461 14.9725C121.892 15.4421 122.109 16.0486 122.109 16.7898ZM120.937 16.8256C120.937 16.3676 120.836 15.9749 120.634 15.6474C120.395 15.2515 120.058 15.0535 119.618 15.0535C119.164 15.0535 118.819 15.2515 118.58 15.6474C118.377 15.9749 118.277 16.3739 118.277 16.8457C118.277 17.3037 118.378 17.6964 118.58 18.0239C118.825 18.4198 119.167 18.6178 119.607 18.6178C120.039 18.6178 120.379 18.4166 120.623 18.0134C120.831 17.6796 120.937 17.2837 120.937 16.8256Z" fill="black" fill-opacity="0.8"/>
<path d="M128.192 19.3139H127.062V16.471C127.062 15.5949 126.721 15.1569 126.035 15.1569C125.699 15.1569 125.428 15.2769 125.219 15.518C125.01 15.7592 124.905 16.0435 124.905 16.3688V19.3129H123.772V15.7686C123.772 15.3327 123.759 14.86 123.732 14.3482H124.726L124.779 15.1242H124.81C124.943 14.8831 125.139 14.6841 125.396 14.5251C125.704 14.3398 126.046 14.2461 126.423 14.2461C126.897 14.2461 127.292 14.3956 127.606 14.6957C127.998 15.0632 128.192 15.6118 128.192 16.3404V19.3139Z" fill="black" fill-opacity="0.8"/>
<path d="M135.807 15.176H134.561V17.5872C134.561 18.2 134.782 18.5065 135.22 18.5065C135.423 18.5065 135.592 18.4896 135.724 18.4549L135.754 19.2919C135.53 19.3741 135.237 19.4151 134.875 19.4151C134.428 19.4151 134.08 19.2825 133.829 19.0171C133.576 18.7518 133.451 18.3053 133.451 17.6788V15.176H132.707V14.3494H133.451V13.4397L134.56 13.1133V14.3484H135.805V15.176H135.807Z" fill="black" fill-opacity="0.8"/>
<path d="M141.797 19.3133H140.664V16.4915C140.664 15.6017 140.323 15.1563 139.64 15.1563C139.115 15.1563 138.757 15.4143 138.56 15.9302C138.527 16.0387 138.507 16.1714 138.507 16.3272V19.3123H137.377V12.0723H138.507V15.0637H138.529C138.885 14.5193 139.396 14.2476 140.058 14.2476C140.526 14.2476 140.914 14.3972 141.221 14.6973C141.605 15.071 141.797 15.627 141.797 16.362V19.3133Z" fill="black" fill-opacity="0.8"/>
<path d="M147.976 16.5958C147.976 16.7938 147.961 16.9601 147.934 17.096H144.54C144.556 17.5866 144.718 17.9604 145.032 18.2195C145.319 18.4511 145.689 18.5669 146.143 18.5669C146.645 18.5669 147.102 18.489 147.515 18.3321L147.692 19.0987C147.209 19.3029 146.641 19.4051 145.984 19.4051C145.196 19.4051 144.575 19.1787 144.126 18.7259C143.675 18.2732 143.451 17.6656 143.451 16.9033C143.451 16.1546 143.66 15.5313 144.079 15.0343C144.518 14.5036 145.111 14.2383 145.859 14.2383C146.591 14.2383 147.147 14.5036 147.522 15.0343C147.826 15.4555 147.976 15.9767 147.976 16.5958ZM146.896 16.3105C146.905 15.983 146.83 15.7008 146.677 15.4629C146.481 15.1564 146.181 15.0027 145.777 15.0027C145.407 15.0027 145.106 15.1522 144.876 15.4523C144.688 15.6913 144.577 15.9767 144.54 16.3105H146.896Z" fill="black" fill-opacity="0.8"/>
<path d="M75.0355 38.3426H72.5837L71.2407 34.2267H66.5726L65.2932 38.3426H62.9062L67.5312 24.3301H70.3878L75.0355 38.3426ZM70.8359 32.4999L69.6213 28.8409C69.4929 28.4671 69.2521 27.5868 68.8969 26.2012H68.8537C68.7123 26.7971 68.4845 27.6774 68.1714 28.8409L66.9785 32.4999H70.8359Z" fill="black" fill-opacity="0.8"/>
<path d="M86.9297 33.1645C86.9297 34.8829 86.4536 36.2412 85.5014 37.2383C84.6485 38.126 83.5894 38.5692 82.3252 38.5692C80.9606 38.5692 79.9803 38.0912 79.3833 37.1351H79.3401V42.4578H77.0384V31.563C77.0384 30.4827 77.0093 29.3739 76.9531 28.2367H78.9774L79.1058 29.8383H79.149C79.9166 28.6316 81.0815 28.0293 82.6447 28.0293C83.8668 28.0293 84.8871 28.5 85.7032 29.4423C86.5216 30.3858 86.9297 31.6261 86.9297 33.1645ZM84.5848 33.2466C84.5848 32.2632 84.3581 31.4524 83.9025 30.8143C83.4048 30.1489 82.7365 29.8161 81.8987 29.8161C81.3309 29.8161 80.8148 30.0015 80.3538 30.3668C79.8918 30.7354 79.5895 31.2166 79.4481 31.8125C79.3768 32.0905 79.3412 32.3179 79.3412 32.4969V34.1816C79.3412 34.9166 79.5722 35.5368 80.0343 36.0432C80.4964 36.5497 81.0966 36.8024 81.8351 36.8024C82.702 36.8024 83.3767 36.476 83.8593 35.8253C84.343 35.1735 84.5848 34.3143 84.5848 33.2466Z" fill="black" fill-opacity="0.8"/>
<path d="M98.8446 33.1645C98.8446 34.8829 98.3685 36.2412 97.4152 37.2383C96.5634 38.126 95.5043 38.5692 94.2401 38.5692C92.8755 38.5692 91.8952 38.0912 91.2993 37.1351H91.2561V42.4578H88.9544V31.563C88.9544 30.4827 88.9253 29.3739 88.8691 28.2367H90.8934L91.0219 29.8383H91.065C91.8315 28.6316 92.9964 28.0293 94.5608 28.0293C95.7818 28.0293 96.802 28.5 97.6203 29.4423C98.4354 30.3858 98.8446 31.6261 98.8446 33.1645ZM96.4997 33.2466C96.4997 32.2632 96.2719 31.4524 95.8163 30.8143C95.3186 30.1489 94.6525 29.8161 93.8137 29.8161C93.2447 29.8161 92.7298 30.0015 92.2677 30.3668C91.8056 30.7354 91.5044 31.2166 91.363 31.8125C91.2928 32.0905 91.2561 32.3179 91.2561 32.4969V34.1816C91.2561 34.9166 91.4872 35.5368 91.9471 36.0432C92.4091 36.5487 93.0094 36.8024 93.75 36.8024C94.6169 36.8024 95.2917 36.476 95.7742 35.8253C96.2579 35.1735 96.4997 34.3143 96.4997 33.2466Z" fill="black" fill-opacity="0.8"/>
<path d="M112.167 34.4113C112.167 35.6033 111.743 36.573 110.891 37.3217C109.955 38.1398 108.652 38.5484 106.977 38.5484C105.431 38.5484 104.192 38.2577 103.254 37.6755L103.787 35.8044C104.798 36.4004 105.906 36.6994 107.115 36.6994C107.981 36.6994 108.656 36.5078 109.141 36.1266C109.624 35.7454 109.864 35.2337 109.864 34.5956C109.864 34.027 109.666 33.5479 109.267 33.1594C108.871 32.7709 108.209 32.4097 107.285 32.0759C104.77 31.1609 103.513 29.8205 103.513 28.0579C103.513 26.906 103.953 25.9615 104.836 25.2265C105.714 24.4905 106.887 24.123 108.353 24.123C109.66 24.123 110.746 24.3452 111.613 24.7885L111.038 26.6185C110.228 26.1889 109.313 25.9741 108.288 25.9741C107.478 25.9741 106.846 26.1689 106.392 26.5564C106.009 26.9028 105.817 27.325 105.817 27.8252C105.817 28.379 106.036 28.8371 106.476 29.1972C106.86 29.5299 107.556 29.89 108.567 30.2785C109.803 30.764 110.711 31.3315 111.295 31.9822C111.877 32.6308 112.167 33.4426 112.167 34.4113Z" fill="black" fill-opacity="0.8"/>
<path d="M119.776 29.923H117.239V34.8287C117.239 36.0764 117.686 36.6997 118.582 36.6997C118.993 36.6997 119.334 36.665 119.604 36.5955L119.668 38.3002C119.215 38.4655 118.618 38.5487 117.878 38.5487C116.969 38.5487 116.259 38.2781 115.746 37.7379C115.235 37.1967 114.978 36.2891 114.978 35.014V29.9209H113.467V28.2362H114.978V26.3862L117.239 25.7207V28.2362H119.776V29.923Z" fill="black" fill-opacity="0.8"/>
<path d="M131.223 33.2065C131.223 34.7596 130.768 36.0347 129.859 37.0318C128.905 38.0584 127.64 38.5701 126.063 38.5701C124.543 38.5701 123.333 38.0784 122.43 37.095C121.527 36.1115 121.076 34.8701 121.076 33.3739C121.076 31.8082 121.54 30.5257 122.472 29.5285C123.402 28.5303 124.656 28.0312 126.233 28.0312C127.753 28.0312 128.977 28.523 129.9 29.5075C130.783 30.4625 131.223 31.6955 131.223 33.2065ZM128.835 33.2791C128.835 32.3473 128.631 31.5481 128.218 30.8816C127.735 30.075 127.045 29.6728 126.151 29.6728C125.226 29.6728 124.523 30.0761 124.041 30.8816C123.627 31.5491 123.423 32.3609 123.423 33.3212C123.423 34.2531 123.627 35.0523 124.041 35.7177C124.538 36.5243 125.234 36.9265 126.131 36.9265C127.01 36.9265 127.699 36.5159 128.197 35.6967C128.621 35.0175 128.835 34.2099 128.835 33.2791Z" fill="black" fill-opacity="0.8"/>
<path d="M138.707 30.2129C138.479 30.1719 138.236 30.1508 137.981 30.1508C137.172 30.1508 136.545 30.4488 136.105 31.0458C135.722 31.5723 135.529 32.2378 135.529 33.0412V38.3427H133.229L133.25 31.4207C133.25 30.2561 133.221 29.1958 133.164 28.2397H135.169L135.253 30.1729H135.317C135.56 29.5085 135.943 28.9736 136.468 28.5725C136.98 28.2113 137.534 28.0312 138.131 28.0312C138.344 28.0312 138.536 28.046 138.707 28.0723V30.2129Z" fill="black" fill-opacity="0.8"/>
<path d="M149 32.8121C149 33.2143 148.973 33.5534 148.916 33.8303H142.01C142.037 34.8285 142.371 35.5918 143.012 36.1183C143.594 36.589 144.347 36.8248 145.271 36.8248C146.293 36.8248 147.226 36.6658 148.065 36.3468L148.425 37.9052C147.445 38.3221 146.288 38.5296 144.952 38.5296C143.346 38.5296 142.085 38.0684 141.167 37.147C140.252 36.2257 139.793 34.9885 139.793 33.4365C139.793 31.9129 140.219 30.6441 141.073 29.6322C141.967 28.5519 143.175 28.0117 144.695 28.0117C146.188 28.0117 147.319 28.5519 148.086 29.6322C148.694 30.4903 149 31.5517 149 32.8121ZM146.805 32.2298C146.82 31.5643 146.67 30.9894 146.358 30.504C145.96 29.8796 145.347 29.568 144.524 29.568C143.771 29.568 143.159 29.8723 142.692 30.483C142.308 30.9684 142.081 31.5507 142.01 32.2288H146.805V32.2298Z" fill="black" fill-opacity="0.8"/>
</svg>
