<svg width="180" height="53" viewBox="0 0 180 53" fill="none" xmlns="http://www.w3.org/2000/svg">
<path d="M173.333 52.0176H6.66667C3.00167 52.0176 0 49.09 0 45.5155V6.503C0 2.92848 3.00167 0.000918735 6.66667 0.000918735H173.333C176.998 0.000918735 180 2.92848 180 6.503V45.5155C180 49.09 176.998 52.0176 173.333 52.0176Z" fill="white"/>
<path d="M173.333 1.04288C176.42 1.04288 178.932 3.49254 178.932 6.503V45.5155C178.932 48.526 176.42 50.9756 173.333 50.9756H6.66667C3.58 50.9756 1.06833 48.526 1.06833 45.5155V6.503C1.06833 3.49254 3.58 1.04288 6.66667 1.04288H173.333ZM173.333 0.000918735H6.66667C3.00167 0.000918735 0 2.92848 0 6.503V45.5155C0 49.09 3.00167 52.0176 6.66667 52.0176H173.333C176.998 52.0176 180 49.09 180 45.5155V6.503C180 2.92848 176.998 0.000918735 173.333 0.000918735Z" fill="#ABABAB"/>
<path d="M30.5317 13.5729C30.2296 13.8814 30.0547 14.3618 30.0547 14.9838V37.1718C30.0547 37.7938 30.2296 38.2742 30.5317 38.5827L30.6063 38.6504L43.3544 26.222V25.9286L30.6063 13.5002L30.5317 13.5729Z" fill="black"/>
<path d="M49.1411 30.3672L44.8965 26.2223V25.9288L49.1463 21.784L49.2414 21.8379L54.2743 24.6308C55.7106 25.4234 55.7106 26.7277 54.2743 27.5253L49.2414 30.3133L49.1411 30.3672Z" fill="black"/>
<path d="M48.4704 31.0846L44.1254 26.8469L31.3027 39.3543C31.7798 39.8434 32.5577 39.9024 33.4424 39.4133L48.4704 31.0846Z" fill="black"/>
<path d="M48.4704 21.065L33.4424 12.7364C32.5577 12.2523 31.7798 12.3113 31.3027 12.8004L44.1254 25.3027L48.4704 21.065Z" fill="black"/>
<path d="M69.3484 16.2864C69.3484 17.1241 69.0912 17.7951 68.5846 18.2955C68.0021 18.8887 67.2434 19.1872 66.3138 19.1872C65.4252 19.1872 64.6666 18.8837 64.0442 18.2855C63.4206 17.6785 63.1094 16.9335 63.1094 16.0418C63.1094 15.1501 63.4206 14.4052 64.0442 13.8032C64.6666 13.2 65.4252 12.8965 66.3138 12.8965C66.7561 12.8965 67.1779 12.9855 67.5803 13.1511C67.9815 13.3179 68.3081 13.5436 68.5447 13.822L68.0072 14.3513C67.5945 13.876 67.0326 13.6414 66.3138 13.6414C65.6657 13.6414 65.1038 13.8622 64.6267 14.3074C64.1548 14.7538 63.9182 15.332 63.9182 16.0418C63.9182 16.7517 64.1548 17.3348 64.6267 17.7813C65.1038 18.2215 65.6657 18.4472 66.3138 18.4472C67.0017 18.4472 67.5803 18.2215 68.0368 17.7763C68.3377 17.4816 68.5087 17.0752 68.5537 16.556H66.3138V15.8311H69.3021C69.3381 15.9879 69.3484 16.1396 69.3484 16.2864Z" fill="black" stroke="black" stroke-opacity="0.8" stroke-width="0.16" stroke-miterlimit="10"/>
<path d="M74.09 13.7719H71.2829V15.6782H73.8135V16.403H71.2829V18.3093H74.09V19.048H70.4883V13.0332H74.09V13.7719Z" fill="black" stroke="black" stroke-opacity="0.8" stroke-width="0.16" stroke-miterlimit="10"/>
<path d="M77.4344 19.048H76.6397V13.7719H74.918V13.0332H79.1575V13.7719H77.4344V19.048Z" fill="black" stroke="black" stroke-opacity="0.8" stroke-width="0.16" stroke-miterlimit="10"/>
<path d="M82.2266 19.048V13.0332H83.0199V19.048H82.2266Z" fill="black" stroke="black" stroke-opacity="0.8" stroke-width="0.16" stroke-miterlimit="10"/>
<path d="M86.536 19.048H85.7477V13.7719H84.0195V13.0332H88.2642V13.7719H86.536V19.048Z" fill="black" stroke="black" stroke-opacity="0.8" stroke-width="0.16" stroke-miterlimit="10"/>
<path d="M96.2908 18.2754C95.6826 18.8837 94.9291 19.1872 94.0303 19.1872C93.1263 19.1872 92.3728 18.8837 91.7646 18.2754C91.1576 17.6684 90.8555 16.9235 90.8555 16.0418C90.8555 15.1602 91.1576 14.4152 91.7646 13.8082C92.3728 13.2 93.1263 12.8965 94.0303 12.8965C94.924 12.8965 95.6775 13.2 96.2857 13.8132C96.8978 14.4253 97.2 15.1652 97.2 16.0418C97.2 16.9235 96.8978 17.6684 96.2908 18.2754ZM92.3522 17.7713C92.81 18.2215 93.3668 18.4472 94.0303 18.4472C94.6886 18.4472 95.2506 18.2215 95.7032 17.7713C96.1597 17.321 96.3911 16.7429 96.3911 16.0418C96.3911 15.3408 96.1597 14.7626 95.7032 14.3124C95.2506 13.8622 94.6886 13.6364 94.0303 13.6364C93.3668 13.6364 92.81 13.8622 92.3522 14.3124C91.8957 14.7626 91.6643 15.3408 91.6643 16.0418C91.6643 16.7429 91.8957 17.321 92.3522 17.7713Z" fill="black" stroke="black" stroke-opacity="0.8" stroke-width="0.16" stroke-miterlimit="10"/>
<path d="M98.3145 19.048V13.0332H99.2789L102.278 17.7111H102.312L102.278 16.5548V13.0332H103.071V19.048H102.243L99.1027 14.1393H99.068L99.1027 15.3007V19.048H98.3145Z" fill="black" stroke="black" stroke-opacity="0.8" stroke-width="0.16" stroke-miterlimit="10"/>
<path d="M90.8045 27.7073C88.3942 27.7073 86.4252 29.4921 86.4252 31.9546C86.4252 34.3972 88.3942 36.2007 90.8045 36.2007C93.2199 36.2007 95.1889 34.3972 95.1889 31.9546C95.1889 29.4921 93.2199 27.7073 90.8045 27.7073ZM90.8045 34.5282C89.482 34.5282 88.3442 33.4661 88.3442 31.9546C88.3442 30.4232 89.482 29.3798 90.8045 29.3798C92.127 29.3798 93.2699 30.4232 93.2699 31.9546C93.2699 33.4661 92.127 34.5282 90.8045 34.5282ZM81.2494 27.7073C78.834 27.7073 76.8702 29.4921 76.8702 31.9546C76.8702 34.3972 78.834 36.2007 81.2494 36.2007C83.6635 36.2007 85.6287 34.3972 85.6287 31.9546C85.6287 29.4921 83.6635 27.7073 81.2494 27.7073ZM81.2494 34.5282C79.9256 34.5282 78.784 33.4661 78.784 31.9546C78.784 30.4232 79.9256 29.3798 81.2494 29.3798C82.5719 29.3798 83.7097 30.4232 83.7097 31.9546C83.7097 33.4661 82.5719 34.5282 81.2494 34.5282ZM69.8793 29.0091V30.8139H74.3086C74.179 31.8224 73.8327 32.5637 73.3016 33.0804C72.6551 33.7045 71.6482 34.3972 69.8793 34.3972C67.1535 34.3972 65.019 32.2567 65.019 29.6045C65.019 26.9522 67.1535 24.8117 69.8793 24.8117C71.3531 24.8117 72.4255 25.3721 73.217 26.0985L74.5241 24.8267C73.4171 23.7983 71.9445 23.0082 69.8793 23.0082C66.1414 23.0082 63 25.9675 63 29.6045C63 33.2414 66.1414 36.2007 69.8793 36.2007C71.8996 36.2007 73.4171 35.5567 74.61 34.3485C75.8324 33.1591 76.2134 31.4866 76.2134 30.1362C76.2134 29.7168 76.1775 29.3311 76.1134 29.0091H69.8793ZM116.373 30.4082C116.013 29.4584 114.901 27.7073 112.635 27.7073C110.391 27.7073 108.522 29.4285 108.522 31.9546C108.522 34.3335 110.371 36.2007 112.851 36.2007C114.856 36.2007 116.013 35.0113 116.489 34.3186L115.001 33.3538C114.504 34.0602 113.828 34.5282 112.851 34.5282C111.88 34.5282 111.183 34.0952 110.737 33.2414L116.575 30.8913L116.373 30.4082ZM110.421 31.8223C110.371 30.1848 111.728 29.3461 112.701 29.3461C113.463 29.3461 114.109 29.7168 114.325 30.2472L110.421 31.8223ZM105.676 35.9423H107.595V23.4613H105.676V35.9423ZM102.534 28.6534H102.47C102.039 28.1567 101.216 27.7073 100.175 27.7073C97.9891 27.7073 95.9906 29.5745 95.9906 31.9684C95.9906 34.3485 97.9891 36.2007 100.175 36.2007C101.216 36.2007 102.039 35.7476 102.47 35.2359H102.534V35.845C102.534 37.4688 101.642 38.3412 100.204 38.3412C99.0319 38.3412 98.3046 37.5175 98.0045 36.8248L96.3356 37.5025C96.8167 38.6283 98.0904 40.0137 100.204 40.0137C102.454 40.0137 104.353 38.7256 104.353 35.5916V27.9657H102.534V28.6534ZM100.339 34.5282C99.0165 34.5282 97.9095 33.4511 97.9095 31.9684C97.9095 30.4719 99.0165 29.3798 100.339 29.3798C101.642 29.3798 102.67 30.4719 102.67 31.9684C102.67 33.4511 101.642 34.5282 100.339 34.5282ZM125.357 23.4613H120.768V35.9423H122.682V31.2133H125.357C127.483 31.2133 129.567 29.7168 129.567 27.3367C129.567 24.9578 127.478 23.4613 125.357 23.4613ZM125.407 29.4772H122.682V25.1974H125.407C126.836 25.1974 127.652 26.3519 127.652 27.3367C127.652 28.3027 126.836 29.4772 125.407 29.4772ZM137.238 27.6836C135.855 27.6836 134.417 28.2777 133.826 29.5945L135.524 30.2872C135.89 29.5945 136.562 29.3698 137.273 29.3698C138.266 29.3698 139.273 29.9502 139.288 30.9749V31.1059C138.942 30.9112 138.2 30.6229 137.288 30.6229C135.459 30.6229 133.595 31.6027 133.595 33.4312C133.595 35.1036 135.093 36.1807 136.778 36.1807C138.065 36.1807 138.776 35.6153 139.222 34.9576H139.288V35.9224H141.136V31.1346C141.136 28.9218 139.438 27.6836 137.238 27.6836ZM137.007 34.5233C136.381 34.5233 135.509 34.2212 135.509 33.4661C135.509 32.5001 136.597 32.1294 137.538 32.1294C138.381 32.1294 138.776 32.3104 139.288 32.5487C139.138 33.7045 138.115 34.5233 137.007 34.5233ZM147.871 27.957L145.671 33.3675H145.605L143.331 27.957H141.267L144.684 35.518L142.735 39.7254H144.734L150 27.957H147.871ZM130.619 35.9423H132.538V23.4613H130.619V35.9423Z" fill="black"/>
</svg>
